# xmcd CD Database Entry
#
# Track frame offsets:
# 150
# 21457
# 45895
# 64720
# 90607
# 115385
# 136437
# 153697
# 171827
# 194402
# 212280
#
# Disc length: 3075 seconds
#
# Revision: 1
# Processed by: cddbd v1.4PL0 Copyright (c) Steve Scherf et al.
# Submitted via: tcd 2.0b
#
DISCID=950c010b
DTITLE=范瑋琪 - 太陽
DYEAR=1900
DGENRE=
TTITLE0=太陽
TTITLE1=他沒有錯
TTITLE2=再聯絡
TTITLE3=每天的每天
TTITLE4=濃情蜜意
TTITLE5=天使的翅膀
TTITLE6=手帕交
TTITLE7=長頭髮
TTITLE8=如果愛
TTITLE9=絕密
TTITLE10=對的人
EXTD=
EXTT0=
EXTT1=
EXTT2=
EXTT3=
EXTT4=
EXTT5=
EXTT6=
EXTT7=
EXTT8=
EXTT9=
EXTT10=
PLAYORDER=
